<svg width="64" height="64" xmlns="http://www.w3.org/2000/svg">

 <g>
  <title>background</title>
  <rect fill="none" id="canvas_background" height="402" width="582" y="-1" x="-1"/>
 </g>
 <g>
  <title>Layer 1</title>
  <path fill="#ffffff" id="svg_2" d="m61.126,1.466c-1.947,-1.947 -5.116,-1.949 -7.067,-0.004c-0.001,0.001 -0.003,0.002 -0.005,0.003l-25.419,25.422c-0.027,0.028 -0.039,0.064 -0.063,0.094s-0.058,0.049 -0.078,0.083l-7.013,11.212l-5.679,5.679c-0.001,0.001 -0.002,0.001 -0.003,0.002s-0.001,0.002 -0.002,0.003l-6.315,6.315c-0.001,0.001 -0.002,0.001 -0.003,0.002s-0.001,0.002 -0.002,0.003l-4.209,4.209c-0.001,0.001 -0.002,0.001 -0.003,0.002s-0.001,0.002 -0.002,0.003l-1.436,1.436l-0.001,-0.001c-0.391,-0.391 -1.023,-0.391 -1.414,0l-2.121,2.121c-0.391,0.391 -0.391,1.023 0,1.414l4.242,4.243c0.188,0.188 0.441,0.293 0.707,0.293s0.52,-0.105 0.707,-0.293l2.122,-2.122c0.188,-0.188 0.293,-0.441 0.293,-0.707s-0.105,-0.52 -0.293,-0.707l3.543,-3.545l0.001,0s0,0 0,-0.001l10.532,-10.531c0,-0.001 0.001,-0.001 0.002,-0.002s0.001,-0.002 0.002,-0.002l3.571,-3.572l11.215,-7.013c0.027,-0.018 0.043,-0.045 0.068,-0.064c0.036,-0.027 0.078,-0.041 0.111,-0.074l25.42,-25.421c0.945,-0.945 1.466,-2.2 1.467,-3.535c0,-1.334 -0.521,-2.59 -1.466,-3.535l-1.409,-1.41zm-55.885,60.119l-2.828,-2.829l0.707,-0.707l2.829,2.828l-0.708,0.708zm54.471,-58.705l1.409,1.41c0.567,0.567 0.88,1.32 0.88,2.121s-0.313,1.554 -0.881,2.122l-25.327,25.327l-11.229,7.021c-0.033,0.021 -0.052,0.054 -0.082,0.078c-0.03,0.023 -0.066,0.034 -0.095,0.063l-2.946,2.947l-1.413,-1.413l2.947,-2.947c0.009,-0.009 0.012,-0.021 0.02,-0.029c0.043,-0.047 0.087,-0.092 0.121,-0.147l7.013,-11.212l25.334,-25.337c0.002,-0.002 0.004,-0.002 0.006,-0.004c1.17,-1.17 3.073,-1.169 4.243,0zm-40.378,43.196l-1.412,-1.412l0.692,-0.693l1.413,1.413l-0.693,0.692zm-2.106,2.107l-1.413,-1.412l0.693,-0.692l1.412,1.412l-0.692,0.692zm-2.108,2.107l-1.412,-1.413l0.692,-0.692l1.413,1.412l-0.693,0.693zm-2.106,2.106l-1.412,-1.412l0.692,-0.693l1.412,1.413l-0.692,0.692zm-2.107,2.108l-1.413,-1.413l0.693,-0.692l1.412,1.412l-0.692,0.693zm-2.107,2.106l-1.413,-1.413l0.693,-0.692l1.413,1.413l-0.693,0.692zm-2.827,0.001l1.414,1.414l-0.728,0.727l-1.413,-1.413l0.727,-0.728z"/>
 </g>
</svg>