<svg width="64" height="64" xmlns="http://www.w3.org/2000/svg">

 <g>
  <title>background</title>
  <rect fill="none" id="canvas_background" height="402" width="582" y="-1" x="-1"/>
 </g>
 <g>
  <title>Layer 1</title>
  <path fill="#ffffff" id="svg_2" d="m55.941,15.682c0.309,-0.393 0.298,-0.954 -0.064,-1.316c-0.391,-0.391 -1.023,-0.391 -1.414,0l-0.473,0.473c-0.354,-0.125 -0.713,-0.236 -1.078,-0.336l0.137,-0.137c0.391,-0.391 0.391,-1.023 0,-1.414s-1.023,-0.391 -1.414,0l-1.094,1.095c-0.507,-0.052 -1.021,-0.079 -1.541,-0.079l-34,0c-8.271,0 -15,6.729 -15,15l0,17.999c0,8.271 6.729,15 15,15l12.835,0c0.056,0.01 0.106,0.033 0.165,0.033l7.998,0c0.059,0 0.109,-0.023 0.165,-0.033l12.837,0c8.271,0 15,-6.729 15,-15l0,-18c0,-5.767 -3.275,-10.776 -8.059,-13.285zm-40.941,28.284l34,0c5.479,0 10.267,-2.961 12.885,-7.358c-0.812,6.394 -6.275,11.358 -12.885,11.358l-34,0c-6.61,0 -12.073,-4.964 -12.885,-11.358c2.618,4.397 7.406,7.358 12.885,7.358zm34,10l-8.006,0l0,-4l8.006,0c5.479,0 10.267,-2.962 12.885,-7.358c-0.812,6.394 -6.274,11.358 -12.885,11.358zm-20,6l0,-4.998l2.016,0l0,4.998l-2.016,0zm4.016,0l0,-4.998l1.982,0l0,4.998l-1.982,0zm2.982,-6.998l-7.998,0c-0.553,0 -1,0.447 -1,1l0,5.998l-1.996,0l0,-10l13.99,0l0,10l-1.996,0l0,-5.998c0,-0.553 -0.447,-1 -1,-1zm-20.998,0.998c-6.611,0 -12.073,-4.964 -12.885,-11.358c2.618,4.396 7.406,7.358 12.885,7.358l8.004,0l0,4l-8.004,0zm-12.885,-5.359c2.618,4.397 7.406,7.359 12.885,7.359l8.004,0l0,4l-8.004,0c-6.611,0 -12.073,-4.964 -12.885,-11.359zm46.885,11.359l-8.006,0l0,-4l8.006,0c5.479,0 10.267,-2.962 12.885,-7.358c-0.812,6.394 -6.274,11.358 -12.885,11.358zm0,-18l-34,0c-7.168,0 -13,-5.831 -13,-12.999s5.832,-13 13,-13l33.683,0c-0.241,0.386 -0.212,0.892 0.124,1.228c0.195,0.195 0.451,0.293 0.707,0.293s0.512,-0.098 0.707,-0.293l1.021,-1.021c0.392,0.068 0.776,0.156 1.156,0.259c-0.39,0.391 -0.389,1.022 0.001,1.412c0.195,0.195 0.451,0.293 0.707,0.293s0.512,-0.098 0.707,-0.293l0.655,-0.655c4.44,2.07 7.532,6.564 7.532,11.777c0,7.168 -5.832,12.999 -13,12.999z"/>
  <path fill="#ffffff" id="svg_3" d="m57.821,27.187c-0.001,-0.005 -0.001,-0.01 -0.002,-0.016c-0.833,-4.095 -4.453,-7.187 -8.787,-7.202c-0.012,-0.001 -0.021,-0.007 -0.032,-0.007l-34,0c-0.009,0 -0.017,0.005 -0.025,0.005c-4.338,0.013 -7.962,3.108 -8.794,7.206c-0.001,0.005 -0.001,0.009 -0.002,0.014c-0.116,0.576 -0.179,1.17 -0.179,1.78c0,0.852 0.127,1.672 0.349,2.453c0.002,0.015 0.008,0.029 0.011,0.044c0.372,1.283 1.021,2.446 1.88,3.425c0.04,0.054 0.084,0.102 0.132,0.145c1.646,1.798 4.005,2.934 6.629,2.934c0.002,0 0.003,-0.001 0.005,-0.001l33.994,0c2.626,0 4.986,-1.138 6.633,-2.938c0.044,-0.041 0.084,-0.085 0.121,-0.134c1.393,-1.585 2.246,-3.657 2.246,-5.928c0,-0.61 -0.062,-1.204 -0.179,-1.78zm-3.177,5.903c-1.792,-0.73 -3.683,-1.123 -5.644,-1.123l-34,0c-1.961,0 -3.852,0.392 -5.645,1.123c-0.317,-0.435 -0.593,-0.902 -0.806,-1.404c1.958,-1.122 4.171,-1.716 6.45,-1.716c0.007,0 0.013,-0.004 0.02,-0.004l33.961,0c0.007,0 0.013,0.004 0.02,0.004c2.28,0 4.493,0.594 6.45,1.716c-0.213,0.502 -0.488,0.97 -0.806,1.404zm-5.644,2.876l-34,0c-0.001,0 -0.003,0.001 -0.004,0.001c-1.528,-0.001 -2.939,-0.5 -4.092,-1.336c1.313,-0.438 2.685,-0.664 4.096,-0.664l34,0c1.412,0 2.782,0.227 4.096,0.664c-1.154,0.836 -2.567,1.335 -4.096,1.335zm0.023,-7.995c-0.008,0 -0.015,-0.005 -0.023,-0.005l-34,0c-0.009,0 -0.016,0.005 -0.023,0.005c-2.437,0.004 -4.807,0.599 -6.939,1.72c-0.025,-0.239 -0.038,-0.48 -0.038,-0.724c0,-0.339 0.032,-0.669 0.079,-0.995c2.071,-1.307 4.452,-2.004 6.921,-2.004c0.004,0 0.006,-0.002 0.01,-0.002l33.98,0c0.004,0 0.006,0.002 0.01,0.002l0.005,0c2.465,0 4.844,0.696 6.916,2.003c0.047,0.326 0.079,0.657 0.079,0.996c0,0.244 -0.013,0.485 -0.037,0.724c-2.133,-1.121 -4.502,-1.716 -6.94,-1.72zm-34.023,-6.005c0.007,0 0.013,-0.004 0.02,-0.004l33.956,0c0.009,0 0.016,0.005 0.024,0.005c2.46,0 4.624,1.279 5.873,3.204c-1.843,-0.785 -3.826,-1.202 -5.862,-1.203c-0.004,0 -0.007,-0.002 -0.011,-0.002l-34,0c-0.004,0 -0.008,0.002 -0.012,0.002c-2.037,0.002 -4.021,0.419 -5.862,1.204c1.249,-1.926 3.413,-3.206 5.874,-3.206z"/>
  <path fill="#ffffff" id="svg_4" d="m53.19,11.551c0.176,0.238 0.35,0.478 0.565,0.693c1.134,1.134 2.641,1.758 4.243,1.758s3.109,-0.624 4.243,-1.758c0.211,-0.212 0.382,-0.447 0.555,-0.681c0.055,-0.054 0.104,-0.112 0.146,-0.18c1.4,-2.048 1.387,-4.767 -0.032,-6.805c-0.034,-0.05 -0.069,-0.095 -0.111,-0.136c-0.174,-0.235 -0.345,-0.472 -0.558,-0.685c-1.134,-1.133 -2.641,-1.757 -4.243,-1.757s-3.109,0.624 -4.243,1.757c-0.211,0.211 -0.381,0.445 -0.554,0.678c-0.044,0.044 -0.08,0.091 -0.116,0.143c-1.422,2.04 -1.434,4.761 -0.028,6.81c0.039,0.061 0.084,0.113 0.133,0.163zm1.214,-4.965c0.78,0.78 0.78,2.049 0.001,2.828c-0.035,0.035 -0.077,0.058 -0.114,0.09c-0.388,-0.962 -0.388,-2.045 0.001,-3.006c0.036,0.031 0.078,0.054 0.112,0.088zm7.301,2.918c-0.036,-0.031 -0.077,-0.054 -0.111,-0.088c-0.78,-0.78 -0.78,-2.049 0.001,-2.83c0.034,-0.034 0.075,-0.057 0.11,-0.087c0.388,0.961 0.388,2.044 0,3.005zm-1.194,-4.592c-0.109,0.089 -0.231,0.161 -0.331,0.261c-1.56,1.56 -1.56,4.098 -0.001,5.656c0.099,0.1 0.221,0.171 0.329,0.259c-1.434,1.145 -3.585,1.145 -5.019,-0.001c0.108,-0.088 0.229,-0.158 0.329,-0.258c1.56,-1.56 1.56,-4.098 -0.001,-5.658c-0.1,-0.1 -0.221,-0.171 -0.33,-0.259c0.711,-0.579 1.582,-0.91 2.512,-0.91s1.801,0.331 2.512,0.91z"/>
  <path fill="#ffffff" id="svg_5" d="m49.568,13.603l2.066,-2.065c0.391,-0.391 0.391,-1.023 0,-1.414s-1.023,-0.391 -1.414,0l-2.066,2.065c-0.391,0.391 -0.391,1.023 0,1.414c0.195,0.195 0.451,0.293 0.707,0.293s0.512,-0.098 0.707,-0.293z"/>
 </g>
</svg>