<svg width="64" height="64" xmlns="http://www.w3.org/2000/svg">

 <g>
  <title>background</title>
  <rect fill="none" id="canvas_background" height="402" width="582" y="-1" x="-1"/>
 </g>
 <g>
  <title>Layer 1</title>
  <g id="svg_1">
   <g id="svg_2">
    <g id="svg_3"/>
    <g id="svg_7"/>
    <g id="svg_9">
     <path fill="#ffffff" id="svg_10" d="m32,51.78022c-11.028,0 -20,-8.973 -20,-20s8.972,-20 20,-20c11.027,0 20,8.973 20,20s-8.973,20 -20,20zm0,-38c-9.925,0 -18,8.075 -18,18s8.075,18 18,18s18,-8.075 18,-18s-8.075,-18 -18,-18z"/>
    </g>
    <g id="svg_11">
     <path fill="#ffffff" id="svg_12" d="m45.078,46.56522c-0.133,0 -0.268,-0.026 -0.396,-0.081c-5.882,-2.53 -9.683,-8.302 -9.683,-14.704c0,-6.398 3.8,-12.17 9.681,-14.702c0.506,-0.217 1.096,0.015 1.313,0.522c0.219,0.507 -0.017,1.096 -0.522,1.313c-5.146,2.219 -8.471,7.267 -8.471,12.867c0,5.604 3.326,10.652 8.475,12.866c0.506,0.219 0.74,0.807 0.522,1.313c-0.163,0.38 -0.532,0.606 -0.919,0.606z"/>
    </g>
    <g id="svg_13">
     <path fill="#ffffff" id="svg_14" d="m37,32.78022l-2,0c-0.553,0 -1,-0.447 -1,-1s0.447,-1 1,-1l2,0c0.553,0 1,0.447 1,1s-0.447,1 -1,1z"/>
    </g>
    <g id="svg_15">
     <path fill="#ffffff" id="svg_16" d="m37.145,40.78022c-0.347,0 -0.683,-0.18 -0.867,-0.5c-0.276,-0.479 -0.112,-1.09 0.365,-1.366l1.732,-1c0.477,-0.276 1.089,-0.112 1.365,0.366c0.277,0.479 0.113,1.09 -0.365,1.366l-1.732,1c-0.159,0.091 -0.328,0.134 -0.498,0.134z"/>
    </g>
    <g id="svg_17">
     <path fill="#ffffff" id="svg_18" d="m38.874,25.78222c-0.17,0 -0.343,-0.043 -0.5,-0.135l-1.731,-1.002c-0.479,-0.276 -0.643,-0.889 -0.365,-1.366c0.275,-0.479 0.887,-0.644 1.367,-0.364l1.731,1.002c0.478,0.276 0.642,0.889 0.364,1.366c-0.183,0.319 -0.52,0.499 -0.866,0.499z"/>
    </g>
    <g id="svg_19">
     <path fill="#ffffff" id="svg_20" d="m18.924,46.56422c-0.387,0 -0.756,-0.228 -0.918,-0.604c-0.219,-0.507 0.016,-1.096 0.522,-1.313c5.147,-2.219 8.472,-7.267 8.472,-12.867c0,-5.602 -3.326,-10.65 -8.474,-12.866c-0.507,-0.219 -0.741,-0.807 -0.523,-1.314c0.219,-0.508 0.81,-0.738 1.314,-0.523c5.882,2.531 9.683,8.303 9.683,14.704c0,6.397 -3.8,12.17 -9.681,14.702c-0.129,0.055 -0.262,0.081 -0.395,0.081z"/>
    </g>
    <g id="svg_21">
     <path fill="#ffffff" id="svg_22" d="m29,32.78022l-2,0c-0.553,0 -1,-0.447 -1,-1s0.447,-1 1,-1l2,0c0.553,0 1,0.447 1,1s-0.447,1 -1,1z"/>
    </g>
    <g id="svg_23">
     <path fill="#ffffff" id="svg_24" d="m25.124,25.78022c-0.346,0 -0.682,-0.18 -0.867,-0.5c-0.276,-0.479 -0.112,-1.09 0.366,-1.366l1.732,-1c0.476,-0.274 1.089,-0.11 1.366,0.366c0.276,0.479 0.112,1.09 -0.366,1.366l-1.732,1c-0.157,0.091 -0.329,0.134 -0.499,0.134z"/>
    </g>
    <g id="svg_25">
     <path fill="#ffffff" id="svg_26" d="m26.855,40.78022c-0.17,0 -0.342,-0.043 -0.5,-0.135l-1.732,-1.002c-0.478,-0.276 -0.642,-0.889 -0.364,-1.366c0.275,-0.479 0.886,-0.644 1.366,-0.364l1.732,1.002c0.478,0.276 0.642,0.889 0.364,1.366c-0.185,0.319 -0.521,0.499 -0.866,0.499z"/>
    </g>
   </g>
  </g>
 </g>
</svg>