<svg width="64" height="64" xmlns="http://www.w3.org/2000/svg">

 <g>
  <title>background</title>
  <rect fill="none" id="canvas_background" height="402" width="582" y="-1" x="-1"/>
 </g>
 <g>
  <title>Layer 1</title>
  <path fill="#ffffff" id="svg_2" d="m62.534,9.946c0.945,-0.944 1.466,-2.2 1.467,-3.535c0,-1.335 -0.521,-2.59 -1.466,-3.535l-1.409,-1.409c-1.946,-1.946 -5.11,-1.949 -7.061,-0.01c-0.004,0.004 -0.009,0.004 -0.012,0.008l-22.053,22.056l-22.054,-22.056c-0.003,-0.004 -0.008,-0.004 -0.011,-0.008c-1.95,-1.939 -5.114,-1.937 -7.061,0.01l-1.409,1.409c-0.945,0.945 -1.466,2.2 -1.466,3.535c0.001,1.335 0.522,2.591 1.467,3.535l23.215,23.215l-3.199,5.114l-5.679,5.679c-0.001,0.001 -0.002,0.001 -0.003,0.002s-0.001,0.002 -0.002,0.003l-6.315,6.315c-0.001,0.001 -0.002,0.001 -0.003,0.002s-0.001,0.002 -0.002,0.003l-4.209,4.209c-0.001,0.001 -0.002,0.001 -0.003,0.002s-0.001,0.002 -0.002,0.003l-1.436,1.436l-0.001,-0.001c-0.391,-0.391 -1.023,-0.391 -1.414,0l-2.121,2.121c-0.391,0.391 -0.391,1.023 0,1.414l4.242,4.243c0.188,0.188 0.441,0.293 0.707,0.293s0.52,-0.105 0.707,-0.293l2.122,-2.122c0.188,-0.188 0.293,-0.441 0.293,-0.707s-0.105,-0.52 -0.293,-0.707l3.543,-3.545l0.001,0s0,0 0,-0.001l10.532,-10.531c0,-0.001 0.001,-0.001 0.002,-0.002s0.001,-0.002 0.002,-0.002l3.571,-3.572l6.279,-3.926l6.278,3.926l3.571,3.572c0.001,0 0.001,0.001 0.002,0.002s0.002,0.001 0.002,0.002l10.532,10.531l0,0.001l0.001,0l3.543,3.545c-0.188,0.188 -0.293,0.441 -0.293,0.707s0.105,0.52 0.293,0.707l2.122,2.122c0.188,0.188 0.441,0.293 0.707,0.293s0.52,-0.105 0.707,-0.293l4.242,-4.243c0.391,-0.391 0.391,-1.023 0,-1.414l-2.121,-2.121c-0.391,-0.391 -1.023,-0.391 -1.414,0l-0.001,0.001l-1.436,-1.436c-0.001,-0.001 -0.001,-0.002 -0.002,-0.003s-0.002,-0.001 -0.003,-0.002l-4.209,-4.209c-0.001,-0.001 -0.001,-0.002 -0.002,-0.003s-0.002,-0.001 -0.003,-0.002l-6.315,-6.315c-0.001,-0.001 -0.001,-0.002 -0.002,-0.003s-0.002,-0.001 -0.003,-0.002l-5.679,-5.679l-3.199,-5.113l23.216,-23.216zm-57.293,51.639l-2.828,-2.829l0.707,-0.707l2.829,2.828l-0.708,0.708zm53.518,0l-0.708,-0.708l2.829,-2.828l0.707,0.707l-2.828,2.829zm0.953,-58.704l1.409,1.409c0.567,0.567 0.88,1.32 0.88,2.121s-0.313,1.554 -0.881,2.121l-25.327,25.328l-11.229,7.021c-0.033,0.021 -0.052,0.054 -0.082,0.078c-0.03,0.023 -0.066,0.034 -0.095,0.063l-2.946,2.947l-1.413,-1.413l2.947,-2.947c0.009,-0.009 0.012,-0.021 0.02,-0.029c0.043,-0.047 0.087,-0.092 0.121,-0.147l7.013,-11.212l2.558,-2.559c0.008,-0.007 0.018,-0.009 0.024,-0.016s0.009,-0.017 0.016,-0.024l22.736,-22.738c0.002,-0.002 0.004,-0.002 0.006,-0.004c1.17,-1.168 3.073,-1.169 4.243,0.001zm-40.378,43.195l-1.412,-1.412l0.692,-0.693l1.413,1.413l-0.693,0.692zm-2.106,2.107l-1.413,-1.412l0.693,-0.692l1.412,1.412l-0.692,0.692zm-2.108,2.107l-1.412,-1.413l0.692,-0.692l1.413,1.412l-0.693,0.693zm-2.106,2.106l-1.412,-1.412l0.692,-0.693l1.412,1.413l-0.692,0.692zm-2.107,2.108l-1.413,-1.413l0.693,-0.692l1.412,1.412l-0.692,0.693zm-2.107,2.106l-1.413,-1.413l0.693,-0.692l1.413,1.413l-0.693,0.692zm-2.827,0.001l1.414,1.414l-0.728,0.727l-1.413,-1.413l0.727,-0.728zm-3.093,-48.079c-0.567,-0.567 -0.881,-1.32 -0.881,-2.121s0.313,-1.554 0.88,-2.121l1.409,-1.409c1.17,-1.17 3.073,-1.169 4.243,-0.001c0.002,0.002 0.004,0.002 0.006,0.004l22.049,22.052l-1.951,1.951c-0.027,0.027 -0.039,0.063 -0.063,0.094c-0.024,0.03 -0.057,0.05 -0.078,0.083l-2.726,4.357l-22.888,-22.889zm43.198,36.132l-1.412,1.412l-0.693,-0.692l1.413,-1.413l0.692,0.693zm2.108,2.107l-1.413,1.412l-0.693,-0.693l1.412,-1.412l0.694,0.693zm2.106,2.106l-1.412,1.413l-0.693,-0.693l1.413,-1.412l0.692,0.692zm2.106,2.107l-1.412,1.412l-0.692,-0.692l1.412,-1.413l0.692,0.693zm2.108,2.107l-1.413,1.413l-0.693,-0.693l1.412,-1.412l0.694,0.692zm2.107,2.106l-1.413,1.413l-0.693,-0.692l1.413,-1.413l0.693,0.692zm2.141,2.142l-1.413,1.413l-0.728,-0.727l1.414,-1.414l0.727,0.728zm-17.87,-17.906c0.034,0.056 0.078,0.101 0.121,0.147c0.008,0.009 0.011,0.021 0.02,0.029l2.947,2.947l-1.413,1.413l-2.946,-2.947c-0.028,-0.028 -0.064,-0.039 -0.095,-0.063c-0.03,-0.024 -0.049,-0.058 -0.082,-0.078l-5.55,-3.471l3.051,-1.907c0.027,-0.018 0.043,-0.045 0.068,-0.064c0.036,-0.027 0.078,-0.041 0.111,-0.074l0.752,-0.752l3.016,4.82z"/>
  <path fill="#ffffff" id="svg_3" d="m26.573,58.411c1.285,1.577 3.239,2.587 5.427,2.587c2.181,0 4.131,-1.003 5.415,-2.571c0.031,-0.035 0.058,-0.072 0.084,-0.111c0.937,-1.191 1.501,-2.689 1.501,-4.318c0,-1.677 -0.594,-3.216 -1.58,-4.423c-0.009,-0.01 -0.016,-0.021 -0.024,-0.031c-1.286,-1.554 -3.227,-2.546 -5.396,-2.546c-2.165,0 -4.104,0.989 -5.389,2.538c-0.019,0.02 -0.032,0.043 -0.05,0.064c-0.974,1.204 -1.561,2.733 -1.561,4.398c0,1.639 0.57,3.146 1.518,4.34c0.018,0.025 0.036,0.05 0.055,0.073zm2.428,-4.413c0,1.007 -0.512,1.925 -1.319,2.476c-0.422,-0.734 -0.682,-1.572 -0.682,-2.476s0.26,-1.742 0.683,-2.476c0.806,0.55 1.318,1.468 1.318,2.476zm7.317,-2.476c0.422,0.734 0.682,1.572 0.682,2.476s-0.26,1.742 -0.683,2.476c-0.807,-0.55 -1.318,-1.468 -1.318,-2.476c0,-1.007 0.512,-1.925 1.319,-2.476zm-1.334,-1.511c-1.226,0.93 -1.985,2.396 -1.985,3.987s0.76,3.059 1.985,3.987c-0.836,0.627 -1.861,1.013 -2.984,1.013s-2.149,-0.386 -2.984,-1.013c1.226,-0.93 1.985,-2.396 1.985,-3.987s-0.76,-3.059 -1.985,-3.987c0.836,-0.627 1.861,-1.013 2.984,-1.013s2.149,0.386 2.984,1.013z"/>
 </g>
</svg>